<svg xmlns="http://www.w3.org/2000/svg" width="594.375244140625" height="83.42327117919922" viewBox="-459.9971618652344 -101.40210723876953 594.375244140625 83.42327117919922"><title>Neo4j Graph Visualization</title><desc>Created using Neo4j (http://www.neo4j.com/)</desc><g class="layer relationships"><g class="relationship" transform="translate(-430.9972052640285 -59.75622513814638) rotate(360.0371995472712)"><path class="b-outline" fill="#A5ABB6" stroke="none" d="M 21.40063509461097,12.933012701892217 L 21.90063509461097,12.06698729810778 A 157.42058344793278 157.42058344793278 0 0 0 67.4624923846271,29.62770286779657 L 67.25191995688029,30.60528112690058 A 158.42058344793278 158.42058344793278 0 0 1 21.40063509461097,12.933012701892217 Z M 128.77187934331323,31.63429985810761 L 128.5941186514143,30.65022611269235 A 157.42058344793278 157.42058344793278 0 0 0 174.71778584142072,14.62309611444153 L 173.3055145094315,11.97630755378138 L 181.12900437162594,11.76892776657674 L 176.60081428407298,18.152147528655064 L 175.18854295208376,15.505358967994916 A 158.42058344793278 158.42058344793278 0 0 1 128.77187934331323,31.63429985810761"/><text text-anchor="middle" pointer-events="none" font-size="8px" fill="#000000" x="97.96982444567489" y="36.63525963675649" font-family="Helvetica Neue, Helvetica, Arial, sans-serif">PublicTransport</text></g><g class="relationship" transform="translate(-227.8116723781277 -59.62430598176722) rotate(360.3062616673622)"><path class="b-outline" fill="#A5ABB6" stroke="none" d="M 25 0.5 L 73.6404639553087 0.5 L 73.6404639553087 -0.5 L 25 -0.5 Z M 92.9764014553087 0.5 L 141.6168654106174 0.5 L 141.6168654106174 3.5 L 148.6168654106174 0 L 141.6168654106174 -3.5 L 141.6168654106174 -0.5 L 92.9764014553087 -0.5 Z"/><text text-anchor="middle" pointer-events="none" font-size="8px" fill="#000000" x="83.3084327053087" y="3" font-family="Helvetica Neue, Helvetica, Arial, sans-serif">trek</text></g><g class="relationship" transform="translate(-54.19728724859696 -58.69628060311841) rotate(359.40089721050026)"><path class="b-outline" fill="#A5ABB6" stroke="none" d="M 25 0.5 L 66.62408679029761 0.5 L 66.62408679029761 -0.5 L 25 -0.5 Z M 85.96002429029761 0.5 L 127.58411108059522 0.5 L 127.58411108059522 3.5 L 134.58411108059522 0 L 127.58411108059522 -3.5 L 127.58411108059522 -0.5 L 85.96002429029761 -0.5 Z"/><text text-anchor="middle" pointer-events="none" font-size="8px" fill="#000000" x="76.29205554029761" y="3" font-family="Helvetica Neue, Helvetica, Arial, sans-serif">trek</text></g><g class="relationship" transform="translate(-430.9972052640285 -59.75622513814638) rotate(360.0371995472712)"><path class="b-outline" fill="#A5ABB6" stroke="none" d="M 25 0.5 L 88.42481910523027 0.5 L 88.42481910523027 -0.5 L 25 -0.5 Z M 107.76075660523027 0.5 L 171.18557571046054 0.5 L 171.18557571046054 3.5 L 178.18557571046054 0 L 171.18557571046054 -3.5 L 171.18557571046054 -0.5 L 107.76075660523027 -0.5 Z"/><text text-anchor="middle" pointer-events="none" font-size="8px" fill="#000000" x="98.09278785523027" y="3" font-family="Helvetica Neue, Helvetica, Arial, sans-serif">trek</text></g><g class="relationship" transform="translate(-430.9972052640285 -59.75622513814638) rotate(360.0371995472712)"><path class="b-outline" fill="#A5ABB6" stroke="none" d="M 21.40063509461097,-12.933012701892217 L 21.90063509461097,-12.06698729810778 A 157.42058344793278 157.42058344793278 0 0 1 87.0239765231643,-32.56990637286232 L 86.93766665187668,-33.566174713279864 A 158.42058344793278 158.42058344793278 0 0 0 21.40063509461097,-12.933012701892217 Z M 108.99812130599658,-33.93517074780975 L 108.9451787255258,-32.93657318964476 A 157.42058344793278 157.42058344793278 0 0 1 174.71778584142072,-14.62309611444153 L 173.3055145094315,-11.97630755378138 L 181.12900437162594,-11.76892776657674 L 176.60081428407298,-18.152147528655064 L 175.18854295208376,-15.505358967994916 A 158.42058344793278 158.42058344793278 0 0 0 108.99812130599658,-33.93517074780975"/><text text-anchor="middle" pointer-events="none" font-size="8px" fill="#000000" x="97.96982444567489" y="-30.635259636756487" font-family="Helvetica Neue, Helvetica, Arial, sans-serif">road</text></g></g><g class="layer nodes"><g class="node" aria-label="graph-node179" transform="translate(-430.9972052640285,-59.75622513814638)"><circle class="b-outline" cx="0" cy="0" r="25" fill="#57C7E3" stroke="#23b3d7" stroke-width="2px"/><text class="caption" text-anchor="middle" pointer-events="none" x="0" y="5" font-size="10px" fill="#2A2C34" font-family="Helvetica Neue, Helvetica, Arial, sans-serif"> Darjeeling</text></g><g class="node" aria-label="graph-node181" transform="translate(105.3780998830623,-60.364912127702866)"><circle class="b-outline" cx="0" cy="0" r="25" fill="#F16667" stroke="#eb2728" stroke-width="2px"/><text class="caption" text-anchor="middle" pointer-events="none" x="0" y="5" font-size="10px" fill="#FFFFFF" font-family="Helvetica Neue, Helvetica, Arial, sans-serif"> Sandakp…</text></g><g class="node" aria-label="graph-node178" transform="translate(-227.8116723781277,-59.62430598176722)"><circle class="b-outline" cx="0" cy="0" r="25" fill="#57C7E3" stroke="#23b3d7" stroke-width="2px"/><text class="caption" text-anchor="middle" pointer-events="none" x="0" y="5" font-size="10px" fill="#2A2C34" font-family="Helvetica Neue, Helvetica, Arial, sans-serif"> Rimbik</text></g><g class="node" aria-label="graph-node180" transform="translate(-54.19728724859696,-58.69628060311841)"><circle class="b-outline" cx="0" cy="0" r="25" fill="#D9C8AE" stroke="#c0a378" stroke-width="2px"/><text class="caption" text-anchor="middle" pointer-events="none" x="0" y="5" font-size="10px" fill="#2A2C34" font-family="Helvetica Neue, Helvetica, Arial, sans-serif"> BhikeBh…</text></g></g></svg>