<svg xmlns="http://www.w3.org/2000/svg" width="1123.966552734375" height="844.1615600585938" viewBox="-641.3525390625 -428.4682312011719 1123.966552734375 844.1615600585938"><title>Neo4j Graph Visualization</title><desc>Created using Neo4j (http://www.neo4j.com/)</desc><g class="layer relationships"><g class="relationship" transform="translate(-88.66049695866204 264.14256963658033) rotate(276.6480056820357)"><path class="b-outline" fill="#A5ABB6" stroke="none" d="M 25 0.5 L 98.05207608056529 0.5 L 98.05207608056529 -0.5 L 25 -0.5 Z M 132.49738858056529 0.5 L 205.54946466113057 0.5 L 205.54946466113057 3.5 L 212.54946466113057 0 L 205.54946466113057 -3.5 L 205.54946466113057 -0.5 L 132.49738858056529 -0.5 Z"/><text text-anchor="middle" pointer-events="none" font-size="8px" fill="#000000" x="115.27473233056529" y="3" font-family="Helvetica Neue, Helvetica, Arial, sans-serif">ORIGIN</text></g><g class="relationship" transform="translate(-88.66049695866204 264.14256963658033) rotate(487.1174974276741)"><path class="b-outline" fill="#A5ABB6" stroke="none" d="M 25 0.5 L 43.75024453157057 0.5 L 43.75024453157057 -0.5 L 25 -0.5 Z M 102.93774453157057 0.5 L 121.68798906314115 0.5 L 121.68798906314115 3.5 L 128.68798906314115 0 L 121.68798906314115 -3.5 L 121.68798906314115 -0.5 L 102.93774453157057 -0.5 Z"/><text text-anchor="middle" pointer-events="none" font-size="8px" fill="#000000" x="73.34399453157057" y="3" transform="rotate(180 73.34399453157057 0)" font-family="Helvetica Neue, Helvetica, Arial, sans-serif">DESTINATION</text></g><g class="relationship" transform="translate(165.6148174656973 54.789554312214605) rotate(186.68986429468208)"><path class="b-outline" fill="#A5ABB6" stroke="none" d="M 25 0.5 L 93.44183455858 0.5 L 93.44183455858 -0.5 L 25 -0.5 Z M 127.88714705858 0.5 L 196.32898161716 0.5 L 196.32898161716 3.5 L 203.32898161716 0 L 196.32898161716 -3.5 L 196.32898161716 -0.5 L 127.88714705858 -0.5 Z"/><text text-anchor="middle" pointer-events="none" font-size="8px" fill="#000000" x="110.66449080858" y="3" transform="rotate(180 110.66449080858 0)" font-family="Helvetica Neue, Helvetica, Arial, sans-serif">ORIGIN</text></g><g class="relationship" transform="translate(165.6148174656973 54.789554312214605) rotate(408.75927822787514)"><path class="b-outline" fill="#A5ABB6" stroke="none" d="M 25 0.5 L 81.13322473319239 0.5 L 81.13322473319239 -0.5 L 25 -0.5 Z M 140.32072473319238 0.5 L 196.45394946638478 0.5 L 196.45394946638478 3.5 L 203.45394946638478 0 L 196.45394946638478 -3.5 L 196.45394946638478 -0.5 L 140.32072473319238 -0.5 Z"/><text text-anchor="middle" pointer-events="none" font-size="8px" fill="#000000" x="110.72697473319239" y="3" font-family="Helvetica Neue, Helvetica, Arial, sans-serif">DESTINATION</text></g><g class="relationship" transform="translate(204.04407245707898 -36.351331333931256) rotate(526.3220218497408)"><path class="b-outline" fill="#A5ABB6" stroke="none" d="M 25 0.5 L 115.74948657139416 0.5 L 115.74948657139416 -0.5 L 25 -0.5 Z M 150.19479907139416 0.5 L 240.94428564278832 0.5 L 240.94428564278832 3.5 L 247.94428564278832 0 L 240.94428564278832 -3.5 L 240.94428564278832 -0.5 L 150.19479907139416 -0.5 Z"/><text text-anchor="middle" pointer-events="none" font-size="8px" fill="#000000" x="132.97214282139416" y="3" transform="rotate(180 132.97214282139416 0)" font-family="Helvetica Neue, Helvetica, Arial, sans-serif">ORIGIN</text></g><g class="relationship" transform="translate(204.04407245707898 -36.351331333931256) rotate(352.60260252412536)"><path class="b-outline" fill="#A5ABB6" stroke="none" d="M 25 0.5 L 92.73849822418758 0.5 L 92.73849822418758 -0.5 L 25 -0.5 Z M 151.9259982241876 0.5 L 219.66449644837516 0.5 L 219.66449644837516 3.5 L 226.66449644837516 0 L 219.66449644837516 -3.5 L 219.66449644837516 -0.5 L 151.9259982241876 -0.5 Z"/><text text-anchor="middle" pointer-events="none" font-size="8px" fill="#000000" x="122.33224822418758" y="3" font-family="Helvetica Neue, Helvetica, Arial, sans-serif">DESTINATION</text></g><g class="relationship" transform="translate(173.54920860707412 152.60097071339325) rotate(207.9264439333125)"><path class="b-outline" fill="#A5ABB6" stroke="none" d="M 25 0.5 L 112.09883499346554 0.5 L 112.09883499346554 -0.5 L 25 -0.5 Z M 146.54414749346554 0.5 L 233.6429824869311 0.5 L 233.6429824869311 3.5 L 240.6429824869311 0 L 233.6429824869311 -3.5 L 233.6429824869311 -0.5 L 146.54414749346554 -0.5 Z"/><text text-anchor="middle" pointer-events="none" font-size="8px" fill="#000000" x="129.32149124346554" y="3" transform="rotate(180 129.32149124346554 0)" font-family="Helvetica Neue, Helvetica, Arial, sans-serif">ORIGIN</text></g><g class="relationship" transform="translate(173.54920860707412 152.60097071339325) rotate(387.406870881037)"><path class="b-outline" fill="#A5ABB6" stroke="none" d="M 25 0.5 L 47.25900152728714 0.5 L 47.25900152728714 -0.5 L 25 -0.5 Z M 106.44650152728714 0.5 L 128.70550305457428 0.5 L 128.70550305457428 3.5 L 135.70550305457428 0 L 128.70550305457428 -3.5 L 128.70550305457428 -0.5 L 106.44650152728714 -0.5 Z"/><text text-anchor="middle" pointer-events="none" font-size="8px" fill="#000000" x="76.85275152728714" y="3" font-family="Helvetica Neue, Helvetica, Arial, sans-serif">DESTINATION</text></g><g class="relationship" transform="translate(-137.7229778667306 -141.70306745193733) rotate(425.7410195398622)"><path class="b-outline" fill="#A5ABB6" stroke="none" d="M 25 0.5 L 72.45155900997584 0.5 L 72.45155900997584 -0.5 L 25 -0.5 Z M 106.89687150997584 0.5 L 154.34843051995168 0.5 L 154.34843051995168 3.5 L 161.34843051995168 0 L 154.34843051995168 -3.5 L 154.34843051995168 -0.5 L 106.89687150997584 -0.5 Z"/><text text-anchor="middle" pointer-events="none" font-size="8px" fill="#000000" x="89.67421525997584" y="3" font-family="Helvetica Neue, Helvetica, Arial, sans-serif">ORIGIN</text></g><g class="relationship" transform="translate(-137.7229778667306 -141.70306745193733) rotate(243.73101573198267)"><path class="b-outline" fill="#A5ABB6" stroke="none" d="M 25 0.5 L 110.63192525048339 0.5 L 110.63192525048339 -0.5 L 25 -0.5 Z M 169.8194252504834 0.5 L 255.45135050096678 0.5 L 255.45135050096678 3.5 L 262.4513505009668 0 L 255.45135050096678 -3.5 L 255.45135050096678 -0.5 L 169.8194252504834 -0.5 Z"/><text text-anchor="middle" pointer-events="none" font-size="8px" fill="#000000" x="140.2256752504834" y="3" transform="rotate(180 140.2256752504834 0)" font-family="Helvetica Neue, Helvetica, Arial, sans-serif">DESTINATION</text></g><g class="relationship" transform="translate(-183.2137988154085 -228.15052453720074) rotate(424.53899142499097)"><path class="b-outline" fill="#A5ABB6" stroke="none" d="M 25 0.5 L 121.23498930979153 0.5 L 121.23498930979153 -0.5 L 25 -0.5 Z M 155.68030180979153 0.5 L 251.91529111958306 0.5 L 251.91529111958306 3.5 L 258.91529111958306 0 L 251.91529111958306 -3.5 L 251.91529111958306 -0.5 L 155.68030180979153 -0.5 Z"/><text text-anchor="middle" pointer-events="none" font-size="8px" fill="#000000" x="138.45764555979153" y="3" font-family="Helvetica Neue, Helvetica, Arial, sans-serif">ORIGIN</text></g><g class="relationship" transform="translate(-183.2137988154085 -228.15052453720074) rotate(244.4954417186148)"><path class="b-outline" fill="#A5ABB6" stroke="none" d="M 25 0.5 L 61.81372805703839 0.5 L 61.81372805703839 -0.5 L 25 -0.5 Z M 121.00122805703839 0.5 L 157.81495611407678 0.5 L 157.81495611407678 3.5 L 164.81495611407678 0 L 157.81495611407678 -3.5 L 157.81495611407678 -0.5 L 121.00122805703839 -0.5 Z"/><text text-anchor="middle" pointer-events="none" font-size="8px" fill="#000000" x="91.40747805703839" y="3" transform="rotate(180 91.40747805703839 0)" font-family="Helvetica Neue, Helvetica, Arial, sans-serif">DESTINATION</text></g><g class="relationship" transform="translate(-85.4249052137727 -225.0152727314386) rotate(444.5259097132729)"><path class="b-outline" fill="#A5ABB6" stroke="none" d="M 25 0.5 L 106.46018523342663 0.5 L 106.46018523342663 -0.5 L 25 -0.5 Z M 140.9054977334266 0.5 L 222.36568296685326 0.5 L 222.36568296685326 3.5 L 229.36568296685326 0 L 222.36568296685326 -3.5 L 222.36568296685326 -0.5 L 140.9054977334266 -0.5 Z"/><text text-anchor="middle" pointer-events="none" font-size="8px" fill="#000000" x="123.68284148342663" y="3" font-family="Helvetica Neue, Helvetica, Arial, sans-serif">ORIGIN</text></g><g class="relationship" transform="translate(-85.4249052137727 -225.0152727314386) rotate(224.17988149874918)"><path class="b-outline" fill="#A5ABB6" stroke="none" d="M 25 0.5 L 92.06739211338711 0.5 L 92.06739211338711 -0.5 L 25 -0.5 Z M 151.25489211338711 0.5 L 218.32228422677423 0.5 L 218.32228422677423 3.5 L 225.32228422677423 0 L 218.32228422677423 -3.5 L 218.32228422677423 -0.5 L 151.25489211338711 -0.5 Z"/><text text-anchor="middle" pointer-events="none" font-size="8px" fill="#000000" x="121.66114211338711" y="3" transform="rotate(180 121.66114211338711 0)" font-family="Helvetica Neue, Helvetica, Arial, sans-serif">DESTINATION</text></g><g class="relationship" transform="translate(85.38659759733235 111.64744518877302) rotate(209.6612362045036)"><path class="b-outline" fill="#A5ABB6" stroke="none" d="M 25 0.5 L 63.599425522715734 0.5 L 63.599425522715734 -0.5 L 25 -0.5 Z M 98.04473802271573 0.5 L 136.64416354543147 0.5 L 136.64416354543147 3.5 L 143.64416354543147 0 L 136.64416354543147 -3.5 L 136.64416354543147 -0.5 L 98.04473802271573 -0.5 Z"/><text text-anchor="middle" pointer-events="none" font-size="8px" fill="#000000" x="80.82208177271573" y="3" transform="rotate(180 80.82208177271573 0)" font-family="Helvetica Neue, Helvetica, Arial, sans-serif">ORIGIN</text></g><g class="relationship" transform="translate(85.38659759733235 111.64744518877302) rotate(386.46806444098974)"><path class="b-outline" fill="#A5ABB6" stroke="none" d="M 25 0.5 L 95.8355184686427 0.5 L 95.8355184686427 -0.5 L 25 -0.5 Z M 155.0230184686427 0.5 L 225.8585369372854 0.5 L 225.8585369372854 3.5 L 232.8585369372854 0 L 225.8585369372854 -3.5 L 225.8585369372854 -0.5 L 155.0230184686427 -0.5 Z"/><text text-anchor="middle" pointer-events="none" font-size="8px" fill="#000000" x="125.4292684686427" y="3" font-family="Helvetica Neue, Helvetica, Arial, sans-serif">DESTINATION</text></g><g class="relationship" transform="translate(3.115527440691122 296.11265482114374) rotate(256.50958257246396)"><path class="b-outline" fill="#A5ABB6" stroke="none" d="M 25 0.5 L 117.03949352342093 0.5 L 117.03949352342093 -0.5 L 25 -0.5 Z M 151.48480602342093 0.5 L 243.52429954684186 0.5 L 243.52429954684186 3.5 L 250.52429954684186 0 L 243.52429954684186 -3.5 L 243.52429954684186 -0.5 L 151.48480602342093 -0.5 Z"/><text text-anchor="middle" pointer-events="none" font-size="8px" fill="#000000" x="134.26214977342093" y="3" transform="rotate(180 134.26214977342093 0)" font-family="Helvetica Neue, Helvetica, Arial, sans-serif">ORIGIN</text></g><g class="relationship" transform="translate(3.115527440691122 296.11265482114374) rotate(513.8535397017831)"><path class="b-outline" fill="#A5ABB6" stroke="none" d="M 25 0.5 L 69.68297516623342 0.5 L 69.68297516623342 -0.5 L 25 -0.5 Z M 128.8704751662334 0.5 L 173.55345033246684 0.5 L 173.55345033246684 3.5 L 180.55345033246684 0 L 173.55345033246684 -3.5 L 173.55345033246684 -0.5 L 128.8704751662334 -0.5 Z"/><text text-anchor="middle" pointer-events="none" font-size="8px" fill="#000000" x="99.27672516623342" y="3" transform="rotate(180 99.27672516623342 0)" font-family="Helvetica Neue, Helvetica, Arial, sans-serif">DESTINATION</text></g><g class="relationship" transform="translate(-23.519719087575847 -146.48564831884246) rotate(462.1603616470511)"><path class="b-outline" fill="#A5ABB6" stroke="none" d="M 25 0.5 L 68.62003174431415 0.5 L 68.62003174431415 -0.5 L 25 -0.5 Z M 103.06534424431415 0.5 L 146.6853759886283 0.5 L 146.6853759886283 3.5 L 153.6853759886283 0 L 146.6853759886283 -3.5 L 146.6853759886283 -0.5 L 103.06534424431415 -0.5 Z"/><text text-anchor="middle" pointer-events="none" font-size="8px" fill="#000000" x="85.84268799431415" y="3" transform="rotate(180 85.84268799431415 0)" font-family="Helvetica Neue, Helvetica, Arial, sans-serif">ORIGIN</text></g><g class="relationship" transform="translate(-23.519719087575847 -146.48564831884246) rotate(316.33436904082237)"><path class="b-outline" fill="#A5ABB6" stroke="none" d="M 25 0.5 L 51.46755161985594 0.5 L 51.46755161985594 -0.5 L 25 -0.5 Z M 110.65505161985594 0.5 L 137.12260323971188 0.5 L 137.12260323971188 3.5 L 144.12260323971188 0 L 137.12260323971188 -3.5 L 137.12260323971188 -0.5 L 110.65505161985594 -0.5 Z"/><text text-anchor="middle" pointer-events="none" font-size="8px" fill="#000000" x="81.06130161985594" y="3" font-family="Helvetica Neue, Helvetica, Arial, sans-serif">DESTINATION</text></g><g class="relationship" transform="translate(-298.3999451977875 -19.745957553942077) rotate(371.4232657669576)"><path class="b-outline" fill="#A5ABB6" stroke="none" d="M 25 0.5 L 100.29480427801361 0.5 L 100.29480427801361 -0.5 L 25 -0.5 Z M 134.7401167780136 0.5 L 210.03492105602723 0.5 L 210.03492105602723 3.5 L 217.03492105602723 0 L 210.03492105602723 -3.5 L 210.03492105602723 -0.5 L 134.7401167780136 -0.5 Z"/><text text-anchor="middle" pointer-events="none" font-size="8px" fill="#000000" x="117.51746052801361" y="3" font-family="Helvetica Neue, Helvetica, Arial, sans-serif">ORIGIN</text></g><g class="relationship" transform="translate(-298.3999451977875 -19.745957553942077) rotate(538.8262903760817)"><path class="b-outline" fill="#A5ABB6" stroke="none" d="M 25 0.5 L 94.61875358434622 0.5 L 94.61875358434622 -0.5 L 25 -0.5 Z M 153.80625358434622 0.5 L 223.42500716869245 0.5 L 223.42500716869245 3.5 L 230.42500716869245 0 L 223.42500716869245 -3.5 L 223.42500716869245 -0.5 L 153.80625358434622 -0.5 Z"/><text text-anchor="middle" pointer-events="none" font-size="8px" fill="#000000" x="124.21250358434622" y="3" transform="rotate(180 124.21250358434622 0)" font-family="Helvetica Neue, Helvetica, Arial, sans-serif">DESTINATION</text></g><g class="relationship" transform="translate(-272.44088877937224 197.6198425731498) rotate(321.2733846904125)"><path class="b-outline" fill="#A5ABB6" stroke="none" d="M 25 0.5 L 114.68982491941853 0.5 L 114.68982491941853 -0.5 L 25 -0.5 Z M 149.13513741941853 0.5 L 238.82496233883705 0.5 L 238.82496233883705 3.5 L 245.82496233883705 0 L 238.82496233883705 -3.5 L 238.82496233883705 -0.5 L 149.13513741941853 -0.5 Z"/><text text-anchor="middle" pointer-events="none" font-size="8px" fill="#000000" x="131.91248116941853" y="3" font-family="Helvetica Neue, Helvetica, Arial, sans-serif">ORIGIN</text></g><g class="relationship" transform="translate(-272.44088877937224 197.6198425731498) rotate(424.28961325412195)"><path class="b-outline" fill="#A5ABB6" stroke="none" d="M 25 0.5 L 71.83067718802737 0.5 L 71.83067718802737 -0.5 L 25 -0.5 Z M 131.01817718802738 0.5 L 177.84885437605473 0.5 L 177.84885437605473 3.5 L 184.84885437605473 0 L 177.84885437605473 -3.5 L 177.84885437605473 -0.5 L 131.01817718802738 -0.5 Z"/><text text-anchor="middle" pointer-events="none" font-size="8px" fill="#000000" x="101.42442718802737" y="3" font-family="Helvetica Neue, Helvetica, Arial, sans-serif">DESTINATION</text></g><g class="relationship" transform="translate(-236.16108957355095 -145.97329290324254) rotate(404.86250587445727)"><path class="b-outline" fill="#A5ABB6" stroke="none" d="M 25 0.5 L 102.7262423647217 0.5 L 102.7262423647217 -0.5 L 25 -0.5 Z M 137.1715548647217 0.5 L 214.8977972294434 0.5 L 214.8977972294434 3.5 L 221.8977972294434 0 L 214.8977972294434 -3.5 L 214.8977972294434 -0.5 L 137.1715548647217 -0.5 Z"/><text text-anchor="middle" pointer-events="none" font-size="8px" fill="#000000" x="119.9488986147217" y="3" font-family="Helvetica Neue, Helvetica, Arial, sans-serif">ORIGIN</text></g><g class="relationship" transform="translate(-236.16108957355095 -145.97329290324254) rotate(263.5219373400663)"><path class="b-outline" fill="#A5ABB6" stroke="none" d="M 25 0.5 L 94.46817483909679 0.5 L 94.46817483909679 -0.5 L 25 -0.5 Z M 153.65567483909678 0.5 L 223.12384967819358 0.5 L 223.12384967819358 3.5 L 230.12384967819358 0 L 223.12384967819358 -3.5 L 223.12384967819358 -0.5 L 153.65567483909678 -0.5 Z"/><text text-anchor="middle" pointer-events="none" font-size="8px" fill="#000000" x="124.06192483909679" y="3" transform="rotate(180 124.06192483909679 0)" font-family="Helvetica Neue, Helvetica, Arial, sans-serif">DESTINATION</text></g><g class="relationship" transform="translate(-331.32410421918433 73.95493544816436) rotate(350.3856384196595)"><path class="b-outline" fill="#A5ABB6" stroke="none" d="M 25 0.5 L 116.28399604868082 0.5 L 116.28399604868082 -0.5 L 25 -0.5 Z M 150.72930854868082 0.5 L 242.01330459736164 0.5 L 242.01330459736164 3.5 L 249.01330459736164 0 L 242.01330459736164 -3.5 L 242.01330459736164 -0.5 L 150.72930854868082 -0.5 Z"/><text text-anchor="middle" pointer-events="none" font-size="8px" fill="#000000" x="133.50665229868082" y="3" font-family="Helvetica Neue, Helvetica, Arial, sans-serif">ORIGIN</text></g><g class="relationship" transform="translate(-331.32410421918433 73.95493544816436) rotate(533.5157011401614)"><path class="b-outline" fill="#A5ABB6" stroke="none" d="M 25 0.5 L 108.32514178866558 0.5 L 108.32514178866558 -0.5 L 25 -0.5 Z M 167.51264178866558 0.5 L 250.83778357733115 0.5 L 250.83778357733115 3.5 L 257.83778357733115 0 L 250.83778357733115 -3.5 L 250.83778357733115 -0.5 L 167.51264178866558 -0.5 Z"/><text text-anchor="middle" pointer-events="none" font-size="8px" fill="#000000" x="137.91889178866558" y="3" transform="rotate(180 137.91889178866558 0)" font-family="Helvetica Neue, Helvetica, Arial, sans-serif">DESTINATION</text></g><g class="relationship" transform="translate(-179.91256564605143 231.31979310745297) rotate(300.311305616082)"><path class="b-outline" fill="#A5ABB6" stroke="none" d="M 25 0.5 L 96.92496271697257 0.5 L 96.92496271697257 -0.5 L 25 -0.5 Z M 131.37027521697257 0.5 L 203.29523793394515 0.5 L 203.29523793394515 3.5 L 210.29523793394515 0 L 203.29523793394515 -3.5 L 203.29523793394515 -0.5 L 131.37027521697257 -0.5 Z"/><text text-anchor="middle" pointer-events="none" font-size="8px" fill="#000000" x="114.14761896697257" y="3" font-family="Helvetica Neue, Helvetica, Arial, sans-serif">ORIGIN</text></g><g class="relationship" transform="translate(-179.91256564605143 231.31979310745297) rotate(450.549874310751)"><path class="b-outline" fill="#A5ABB6" stroke="none" d="M 25 0.5 L 44.596592655627646 0.5 L 44.596592655627646 -0.5 L 25 -0.5 Z M 103.78409265562765 0.5 L 123.38068531125529 0.5 L 123.38068531125529 3.5 L 130.3806853112553 0 L 123.38068531125529 -3.5 L 123.38068531125529 -0.5 L 103.78409265562765 -0.5 Z"/><text text-anchor="middle" pointer-events="none" font-size="8px" fill="#000000" x="74.19034265562765" y="3" transform="rotate(180 74.19034265562765 0)" font-family="Helvetica Neue, Helvetica, Arial, sans-serif">DESTINATION</text></g><g class="relationship" transform="translate(-198.02678410044481 134.74443532588427) rotate(322.09848078577977)"><path class="b-outline" fill="#A5ABB6" stroke="none" d="M 25 0.5 L 66.0045237145562 0.5 L 66.0045237145562 -0.5 L 25 -0.5 Z M 100.4498362145562 0.5 L 141.4543599291124 0.5 L 141.4543599291124 3.5 L 148.4543599291124 0 L 141.4543599291124 -3.5 L 141.4543599291124 -0.5 L 100.4498362145562 -0.5 Z"/><text text-anchor="middle" pointer-events="none" font-size="8px" fill="#000000" x="83.2271799645562" y="3" font-family="Helvetica Neue, Helvetica, Arial, sans-serif">ORIGIN</text></g><g class="relationship" transform="translate(-198.02678410044481 134.74443532588427) rotate(446.22522115216884)"><path class="b-outline" fill="#A5ABB6" stroke="none" d="M 25 0.5 L 93.15458384815334 0.5 L 93.15458384815334 -0.5 L 25 -0.5 Z M 152.34208384815332 0.5 L 220.49666769630667 0.5 L 220.49666769630667 3.5 L 227.49666769630667 0 L 220.49666769630667 -3.5 L 220.49666769630667 -0.5 L 152.34208384815332 -0.5 Z"/><text text-anchor="middle" pointer-events="none" font-size="8px" fill="#000000" x="122.74833384815334" y="3" font-family="Helvetica Neue, Helvetica, Arial, sans-serif">DESTINATION</text></g><g class="relationship" transform="translate(92.5941043926996 209.42221771656423) rotate(229.6893642516385)"><path class="b-outline" fill="#A5ABB6" stroke="none" d="M 25 0.5 L 98.11038599620218 0.5 L 98.11038599620218 -0.5 L 25 -0.5 Z M 132.55569849620218 0.5 L 205.66608449240437 0.5 L 205.66608449240437 3.5 L 212.66608449240437 0 L 205.66608449240437 -3.5 L 205.66608449240437 -0.5 L 132.55569849620218 -0.5 Z"/><text text-anchor="middle" pointer-events="none" font-size="8px" fill="#000000" x="115.33304224620218" y="3" transform="rotate(180 115.33304224620218 0)" font-family="Helvetica Neue, Helvetica, Arial, sans-serif">ORIGIN</text></g><g class="relationship" transform="translate(92.5941043926996 209.42221771656423) rotate(364.38615484247043)"><path class="b-outline" fill="#A5ABB6" stroke="none" d="M 25 0.5 L 79.04620478863491 0.5 L 79.04620478863491 -0.5 L 25 -0.5 Z M 138.2337047886349 0.5 L 192.27990957726982 0.5 L 192.27990957726982 3.5 L 199.27990957726982 0 L 192.27990957726982 -3.5 L 192.27990957726982 -0.5 L 138.2337047886349 -0.5 Z"/><text text-anchor="middle" pointer-events="none" font-size="8px" fill="#000000" x="108.63995478863491" y="3" font-family="Helvetica Neue, Helvetica, Arial, sans-serif">DESTINATION</text></g><g class="relationship" transform="translate(-106.1181106555177 167.91359652244844) rotate(287.83655466796847)"><path class="b-outline" fill="#A5ABB6" stroke="none" d="M 25 0.5 L 52.666471673847255 0.5 L 52.666471673847255 -0.5 L 25 -0.5 Z M 87.11178417384725 0.5 L 114.77825584769451 0.5 L 114.77825584769451 3.5 L 121.77825584769451 0 L 114.77825584769451 -3.5 L 114.77825584769451 -0.5 L 87.11178417384725 -0.5 Z"/><text text-anchor="middle" pointer-events="none" font-size="8px" fill="#000000" x="69.88912792384725" y="3" font-family="Helvetica Neue, Helvetica, Arial, sans-serif">ORIGIN</text></g><g class="relationship" transform="translate(-106.1181106555177 167.91359652244844) rotate(468.9891679488182)"><path class="b-outline" fill="#A5ABB6" stroke="none" d="M 25 0.5 L 82.59170289397298 0.5 L 82.59170289397298 -0.5 L 25 -0.5 Z M 141.77920289397298 0.5 L 199.37090578794596 0.5 L 199.37090578794596 3.5 L 206.37090578794596 0 L 199.37090578794596 -3.5 L 199.37090578794596 -0.5 L 141.77920289397298 -0.5 Z"/><text text-anchor="middle" pointer-events="none" font-size="8px" fill="#000000" x="112.18545289397298" y="3" transform="rotate(180 112.18545289397298 0)" font-family="Helvetica Neue, Helvetica, Arial, sans-serif">DESTINATION</text></g><g class="relationship" transform="translate(-12.928388240839826 200.80718754343235) rotate(254.38901951412112)"><path class="b-outline" fill="#A5ABB6" stroke="none" d="M 25 0.5 L 68.89153433228013 0.5 L 68.89153433228013 -0.5 L 25 -0.5 Z M 103.33684683228013 0.5 L 147.22838116456026 0.5 L 147.22838116456026 3.5 L 154.22838116456026 0 L 147.22838116456026 -3.5 L 147.22838116456026 -0.5 L 103.33684683228013 -0.5 Z"/><text text-anchor="middle" pointer-events="none" font-size="8px" fill="#000000" x="86.11419058228013" y="3" transform="rotate(180 86.11419058228013 0)" font-family="Helvetica Neue, Helvetica, Arial, sans-serif">ORIGIN</text></g><g class="relationship" transform="translate(-12.928388240839826 200.80718754343235) rotate(492.18715964068906)"><path class="b-outline" fill="#A5ABB6" stroke="none" d="M 25 0.5 L 92.34308929620781 0.5 L 92.34308929620781 -0.5 L 25 -0.5 Z M 151.5305892962078 0.5 L 218.87367859241562 0.5 L 218.87367859241562 3.5 L 225.87367859241562 0 L 218.87367859241562 -3.5 L 218.87367859241562 -0.5 L 151.5305892962078 -0.5 Z"/><text text-anchor="middle" pointer-events="none" font-size="8px" fill="#000000" x="121.93683929620781" y="3" transform="rotate(180 121.93683929620781 0)" font-family="Helvetica Neue, Helvetica, Arial, sans-serif">DESTINATION</text></g><g class="relationship" transform="translate(154.81998380138688 -122.84784571294074) rotate(505.03424185724015)"><path class="b-outline" fill="#A5ABB6" stroke="none" d="M 25 0.5 L 111.05337715077505 0.5 L 111.05337715077505 -0.5 L 25 -0.5 Z M 145.49868965077505 0.5 L 231.5520668015501 0.5 L 231.5520668015501 3.5 L 238.5520668015501 0 L 231.5520668015501 -3.5 L 231.5520668015501 -0.5 L 145.49868965077505 -0.5 Z"/><text text-anchor="middle" pointer-events="none" font-size="8px" fill="#000000" x="128.27603340077505" y="3" transform="rotate(180 128.27603340077505 0)" font-family="Helvetica Neue, Helvetica, Arial, sans-serif">ORIGIN</text></g><g class="relationship" transform="translate(154.81998380138688 -122.84784571294074) rotate(334.58545511111913)"><path class="b-outline" fill="#A5ABB6" stroke="none" d="M 25 0.5 L 95.51530632308578 0.5 L 95.51530632308578 -0.5 L 25 -0.5 Z M 154.70280632308578 0.5 L 225.21811264617156 0.5 L 225.21811264617156 3.5 L 232.21811264617156 0 L 225.21811264617156 -3.5 L 225.21811264617156 -0.5 L 154.70280632308578 -0.5 Z"/><text text-anchor="middle" pointer-events="none" font-size="8px" fill="#000000" x="125.10905632308578" y="3" font-family="Helvetica Neue, Helvetica, Arial, sans-serif">DESTINATION</text></g><g class="relationship" transform="translate(59.847576142333594 -92.48754999106411) rotate(495.0780428808956)"><path class="b-outline" fill="#A5ABB6" stroke="none" d="M 25 0.5 L 64.72598152385797 0.5 L 64.72598152385797 -0.5 L 25 -0.5 Z M 99.17129402385797 0.5 L 138.89727554771594 0.5 L 138.89727554771594 3.5 L 145.89727554771594 0 L 138.89727554771594 -3.5 L 138.89727554771594 -0.5 L 99.17129402385797 -0.5 Z"/><text text-anchor="middle" pointer-events="none" font-size="8px" fill="#000000" x="81.94863777385797" y="3" transform="rotate(180 81.94863777385797 0)" font-family="Helvetica Neue, Helvetica, Arial, sans-serif">ORIGIN</text></g><g class="relationship" transform="translate(59.847576142333594 -92.48754999106411) rotate(282.8558822342126)"><path class="b-outline" fill="#A5ABB6" stroke="none" d="M 25 0.5 L 54.48590870059154 0.5 L 54.48590870059154 -0.5 L 25 -0.5 Z M 113.67340870059154 0.5 L 143.15931740118307 0.5 L 143.15931740118307 3.5 L 150.15931740118307 0 L 143.15931740118307 -3.5 L 143.15931740118307 -0.5 L 113.67340870059154 -0.5 Z"/><text text-anchor="middle" pointer-events="none" font-size="8px" fill="#000000" x="84.07965870059154" y="3" font-family="Helvetica Neue, Helvetica, Arial, sans-serif">DESTINATION</text></g></g><g class="layer nodes"><g class="node" aria-label="graph-node203" transform="translate(-61.15953449930809,28.19036001649873)"><circle class="b-outline" cx="0" cy="0" r="25" fill="#8DCC93" stroke="#5db665" stroke-width="2px"/><text class="caption" text-anchor="middle" pointer-events="none" x="0" y="5" font-size="10px" fill="#2A2C34" font-family="Helvetica Neue, Helvetica, Arial, sans-serif"> LAX</text></g><g class="node" aria-label="graph-node238" transform="translate(-181.40374940170813,386.6933228311553)"><circle class="b-outline" cx="0" cy="0" r="25" fill="#8DCC93" stroke="#5db665" stroke-width="2px"/><text class="caption" text-anchor="middle" pointer-events="none" x="0" y="5" font-size="10px" fill="#2A2C34" font-family="Helvetica Neue, Helvetica, Arial, sans-serif"> ABQ</text></g><g class="node" aria-label="graph-node211" transform="translate(316.21715682634596,226.57471783307722)"><circle class="b-outline" cx="0" cy="0" r="25" fill="#8DCC93" stroke="#5db665" stroke-width="2px"/><text class="caption" text-anchor="middle" pointer-events="none" x="0" y="5" font-size="10px" fill="#2A2C34" font-family="Helvetica Neue, Helvetica, Arial, sans-serif"> SMF</text></g><g class="node" aria-label="graph-node200" transform="translate(453.6139682190234,-68.7532742075683)"><circle class="b-outline" cx="0" cy="0" r="25" fill="#8DCC93" stroke="#5db665" stroke-width="2px"/><text class="caption" text-anchor="middle" pointer-events="none" x="0" y="5" font-size="10px" fill="#2A2C34" font-family="Helvetica Neue, Helvetica, Arial, sans-serif"> IAH</text></g><g class="node" aria-label="graph-node239" transform="translate(-264.9448735455055,-399.46820893683355)"><circle class="b-outline" cx="0" cy="0" r="25" fill="#8DCC93" stroke="#5db665" stroke-width="2px"/><text class="caption" text-anchor="middle" pointer-events="none" x="0" y="5" font-size="10px" fill="#2A2C34" font-family="Helvetica Neue, Helvetica, Arial, sans-serif"> FAT</text></g><g class="node" aria-label="graph-node240" transform="translate(98.82043379751353,-263.2561151271496)"><circle class="b-outline" cx="0" cy="0" r="25" fill="#8DCC93" stroke="#5db665" stroke-width="2px"/><text class="caption" text-anchor="middle" pointer-events="none" x="0" y="5" font-size="10px" fill="#2A2C34" font-family="Helvetica Neue, Helvetica, Arial, sans-serif"> TUS</text></g><g class="node" aria-label="graph-node223" transform="translate(-553.7713610657929,-14.513917349891102)"><circle class="b-outline" cx="0" cy="0" r="25" fill="#8DCC93" stroke="#5db665" stroke-width="2px"/><text class="caption" text-anchor="middle" pointer-events="none" x="0" y="5" font-size="10px" fill="#2A2C34" font-family="Helvetica Neue, Helvetica, Arial, sans-serif"> LAS</text></g><g class="node" aria-label="graph-node214" transform="translate(-612.3525292953598,105.89607065250047)"><circle class="b-outline" cx="0" cy="0" r="25" fill="#8DCC93" stroke="#5db665" stroke-width="2px"/><text class="caption" text-anchor="middle" pointer-events="none" x="0" y="5" font-size="10px" fill="#2A2C34" font-family="Helvetica Neue, Helvetica, Arial, sans-serif"> BOS</text></g><g class="node" aria-label="graph-node199" transform="translate(387.1461675063615,-233.23671217301896)"><circle class="b-outline" cx="0" cy="0" r="25" fill="#8DCC93" stroke="#5db665" stroke-width="2px"/><text class="caption" text-anchor="middle" pointer-events="none" x="0" y="5" font-size="10px" fill="#2A2C34" font-family="Helvetica Neue, Helvetica, Arial, sans-serif"> EWR</text></g><g class="node" aria-label="graph-node1173" transform="translate(-88.66049695866204,264.14256963658033)"><circle class="b-outline" cx="0" cy="0" r="25" fill="#ECB5C9" stroke="#da7298" stroke-width="2px"/><text class="caption" text-anchor="middle" pointer-events="none" x="0" y="0" font-size="10px" fill="#2A2C34" font-family="Helvetica Neue, Helvetica, Arial, sans-serif"> 11/2/2015</text><text class="caption" text-anchor="middle" pointer-events="none" x="0" y="10" font-size="10px" fill="#2A2C34" font-family="Helvetica Neue, Helvetica, Arial, sans-serif"> 15:15:…</text></g><g class="node" aria-label="graph-node1201" transform="translate(165.6148174656973,54.789554312214605)"><circle class="b-outline" cx="0" cy="0" r="25" fill="#ECB5C9" stroke="#da7298" stroke-width="2px"/><text class="caption" text-anchor="middle" pointer-events="none" x="0" y="0" font-size="10px" fill="#2A2C34" font-family="Helvetica Neue, Helvetica, Arial, sans-serif"> 11/4/2015</text><text class="caption" text-anchor="middle" pointer-events="none" x="0" y="10" font-size="10px" fill="#2A2C34" font-family="Helvetica Neue, Helvetica, Arial, sans-serif"> 05:06:…</text></g><g class="node" aria-label="graph-node301" transform="translate(204.04407245707898,-36.351331333931256)"><circle class="b-outline" cx="0" cy="0" r="25" fill="#ECB5C9" stroke="#da7298" stroke-width="2px"/><text class="caption" text-anchor="middle" pointer-events="none" x="0" y="5" font-size="10px" fill="#2A2C34" font-family="Helvetica Neue, Helvetica, Arial, sans-serif"> 11/30/20…</text></g><g class="node" aria-label="graph-node1197" transform="translate(173.54920860707412,152.60097071339325)"><circle class="b-outline" cx="0" cy="0" r="25" fill="#ECB5C9" stroke="#da7298" stroke-width="2px"/><text class="caption" text-anchor="middle" pointer-events="none" x="0" y="0" font-size="10px" fill="#2A2C34" font-family="Helvetica Neue, Helvetica, Arial, sans-serif"> 11/1/2015</text><text class="caption" text-anchor="middle" pointer-events="none" x="0" y="10" font-size="10px" fill="#2A2C34" font-family="Helvetica Neue, Helvetica, Arial, sans-serif"> 12:26:…</text></g><g class="node" aria-label="graph-node1157" transform="translate(-137.7229778667306,-141.70306745193733)"><circle class="b-outline" cx="0" cy="0" r="25" fill="#ECB5C9" stroke="#da7298" stroke-width="2px"/><text class="caption" text-anchor="middle" pointer-events="none" x="0" y="0" font-size="10px" fill="#2A2C34" font-family="Helvetica Neue, Helvetica, Arial, sans-serif"> 11/1/2015</text><text class="caption" text-anchor="middle" pointer-events="none" x="0" y="10" font-size="10px" fill="#2A2C34" font-family="Helvetica Neue, Helvetica, Arial, sans-serif"> 02:27:…</text></g><g class="node" aria-label="graph-node1161" transform="translate(-183.2137988154085,-228.15052453720074)"><circle class="b-outline" cx="0" cy="0" r="25" fill="#ECB5C9" stroke="#da7298" stroke-width="2px"/><text class="caption" text-anchor="middle" pointer-events="none" x="0" y="0" font-size="10px" fill="#2A2C34" font-family="Helvetica Neue, Helvetica, Arial, sans-serif"> 11/4/2015</text><text class="caption" text-anchor="middle" pointer-events="none" x="0" y="10" font-size="10px" fill="#2A2C34" font-family="Helvetica Neue, Helvetica, Arial, sans-serif"> 15:13:…</text></g><g class="node" aria-label="graph-node1153" transform="translate(-85.4249052137727,-225.0152727314386)"><circle class="b-outline" cx="0" cy="0" r="25" fill="#ECB5C9" stroke="#da7298" stroke-width="2px"/><text class="caption" text-anchor="middle" pointer-events="none" x="0" y="0" font-size="10px" fill="#2A2C34" font-family="Helvetica Neue, Helvetica, Arial, sans-serif"> 11/2/2015</text><text class="caption" text-anchor="middle" pointer-events="none" x="0" y="10" font-size="10px" fill="#2A2C34" font-family="Helvetica Neue, Helvetica, Arial, sans-serif"> 09:18:…</text></g><g class="node" aria-label="graph-node1205" transform="translate(85.38659759733235,111.64744518877302)"><circle class="b-outline" cx="0" cy="0" r="25" fill="#ECB5C9" stroke="#da7298" stroke-width="2px"/><text class="caption" text-anchor="middle" pointer-events="none" x="0" y="0" font-size="10px" fill="#2A2C34" font-family="Helvetica Neue, Helvetica, Arial, sans-serif"> 11/3/2015</text><text class="caption" text-anchor="middle" pointer-events="none" x="0" y="10" font-size="10px" fill="#2A2C34" font-family="Helvetica Neue, Helvetica, Arial, sans-serif"> 13:44:…</text></g><g class="node" aria-label="graph-node1125" transform="translate(3.115527440691122,296.11265482114374)"><circle class="b-outline" cx="0" cy="0" r="25" fill="#ECB5C9" stroke="#da7298" stroke-width="2px"/><text class="caption" text-anchor="middle" pointer-events="none" x="0" y="0" font-size="10px" fill="#2A2C34" font-family="Helvetica Neue, Helvetica, Arial, sans-serif"> 11/1/2015</text><text class="caption" text-anchor="middle" pointer-events="none" x="0" y="10" font-size="10px" fill="#2A2C34" font-family="Helvetica Neue, Helvetica, Arial, sans-serif"> 05:43:…</text></g><g class="node" aria-label="graph-node1177" transform="translate(-23.519719087575847,-146.48564831884246)"><circle class="b-outline" cx="0" cy="0" r="25" fill="#ECB5C9" stroke="#da7298" stroke-width="2px"/><text class="caption" text-anchor="middle" pointer-events="none" x="0" y="0" font-size="10px" fill="#2A2C34" font-family="Helvetica Neue, Helvetica, Arial, sans-serif"> 11/1/2015</text><text class="caption" text-anchor="middle" pointer-events="none" x="0" y="10" font-size="10px" fill="#2A2C34" font-family="Helvetica Neue, Helvetica, Arial, sans-serif"> 05:51:…</text></g><g class="node" aria-label="graph-node857" transform="translate(-298.3999451977875,-19.745957553942077)"><circle class="b-outline" cx="0" cy="0" r="25" fill="#ECB5C9" stroke="#da7298" stroke-width="2px"/><text class="caption" text-anchor="middle" pointer-events="none" x="0" y="5" font-size="10px" fill="#2A2C34" font-family="Helvetica Neue, Helvetica, Arial, sans-serif"> 11/29/20…</text></g><g class="node" aria-label="graph-node1165" transform="translate(-272.44088877937224,197.6198425731498)"><circle class="b-outline" cx="0" cy="0" r="25" fill="#ECB5C9" stroke="#da7298" stroke-width="2px"/><text class="caption" text-anchor="middle" pointer-events="none" x="0" y="0" font-size="10px" fill="#2A2C34" font-family="Helvetica Neue, Helvetica, Arial, sans-serif"> 11/3/2015</text><text class="caption" text-anchor="middle" pointer-events="none" x="0" y="10" font-size="10px" fill="#2A2C34" font-family="Helvetica Neue, Helvetica, Arial, sans-serif"> 23:26:…</text></g><g class="node" aria-label="graph-node1149" transform="translate(-236.16108957355095,-145.97329290324254)"><circle class="b-outline" cx="0" cy="0" r="25" fill="#ECB5C9" stroke="#da7298" stroke-width="2px"/><text class="caption" text-anchor="middle" pointer-events="none" x="0" y="0" font-size="10px" fill="#2A2C34" font-family="Helvetica Neue, Helvetica, Arial, sans-serif"> 11/3/2015</text><text class="caption" text-anchor="middle" pointer-events="none" x="0" y="10" font-size="10px" fill="#2A2C34" font-family="Helvetica Neue, Helvetica, Arial, sans-serif"> 11:45:…</text></g><g class="node" aria-label="graph-node845" transform="translate(-331.32410421918433,73.95493544816436)"><circle class="b-outline" cx="0" cy="0" r="25" fill="#ECB5C9" stroke="#da7298" stroke-width="2px"/><text class="caption" text-anchor="middle" pointer-events="none" x="0" y="5" font-size="10px" fill="#2A2C34" font-family="Helvetica Neue, Helvetica, Arial, sans-serif"> 11/29/20…</text></g><g class="node" aria-label="graph-node1169" transform="translate(-179.91256564605143,231.31979310745297)"><circle class="b-outline" cx="0" cy="0" r="25" fill="#ECB5C9" stroke="#da7298" stroke-width="2px"/><text class="caption" text-anchor="middle" pointer-events="none" x="0" y="0" font-size="10px" fill="#2A2C34" font-family="Helvetica Neue, Helvetica, Arial, sans-serif"> 11/1/2015</text><text class="caption" text-anchor="middle" pointer-events="none" x="0" y="10" font-size="10px" fill="#2A2C34" font-family="Helvetica Neue, Helvetica, Arial, sans-serif"> 17:17:…</text></g><g class="node" aria-label="graph-node1121" transform="translate(-198.02678410044481,134.74443532588427)"><circle class="b-outline" cx="0" cy="0" r="25" fill="#ECB5C9" stroke="#da7298" stroke-width="2px"/><text class="caption" text-anchor="middle" pointer-events="none" x="0" y="0" font-size="10px" fill="#2A2C34" font-family="Helvetica Neue, Helvetica, Arial, sans-serif"> 11/4/2015</text><text class="caption" text-anchor="middle" pointer-events="none" x="0" y="10" font-size="10px" fill="#2A2C34" font-family="Helvetica Neue, Helvetica, Arial, sans-serif"> 15:09:…</text></g><g class="node" aria-label="graph-node1193" transform="translate(92.5941043926996,209.42221771656423)"><circle class="b-outline" cx="0" cy="0" r="25" fill="#ECB5C9" stroke="#da7298" stroke-width="2px"/><text class="caption" text-anchor="middle" pointer-events="none" x="0" y="0" font-size="10px" fill="#2A2C34" font-family="Helvetica Neue, Helvetica, Arial, sans-serif"> 11/2/2015</text><text class="caption" text-anchor="middle" pointer-events="none" x="0" y="10" font-size="10px" fill="#2A2C34" font-family="Helvetica Neue, Helvetica, Arial, sans-serif"> 11:49:…</text></g><g class="node" aria-label="graph-node1117" transform="translate(-106.1181106555177,167.91359652244844)"><circle class="b-outline" cx="0" cy="0" r="25" fill="#ECB5C9" stroke="#da7298" stroke-width="2px"/><text class="caption" text-anchor="middle" pointer-events="none" x="0" y="0" font-size="10px" fill="#2A2C34" font-family="Helvetica Neue, Helvetica, Arial, sans-serif"> 11/2/2015</text><text class="caption" text-anchor="middle" pointer-events="none" x="0" y="10" font-size="10px" fill="#2A2C34" font-family="Helvetica Neue, Helvetica, Arial, sans-serif"> 04:43:…</text></g><g class="node" aria-label="graph-node1129" transform="translate(-12.928388240839826,200.80718754343235)"><circle class="b-outline" cx="0" cy="0" r="25" fill="#ECB5C9" stroke="#da7298" stroke-width="2px"/><text class="caption" text-anchor="middle" pointer-events="none" x="0" y="0" font-size="10px" fill="#2A2C34" font-family="Helvetica Neue, Helvetica, Arial, sans-serif"> 11/3/2015</text><text class="caption" text-anchor="middle" pointer-events="none" x="0" y="10" font-size="10px" fill="#2A2C34" font-family="Helvetica Neue, Helvetica, Arial, sans-serif"> 21:46:…</text></g><g class="node" aria-label="graph-node741" transform="translate(154.81998380138688,-122.84784571294074)"><circle class="b-outline" cx="0" cy="0" r="25" fill="#ECB5C9" stroke="#da7298" stroke-width="2px"/><text class="caption" text-anchor="middle" pointer-events="none" x="0" y="5" font-size="10px" fill="#2A2C34" font-family="Helvetica Neue, Helvetica, Arial, sans-serif"> 11/29/20…</text></g><g class="node" aria-label="graph-node1181" transform="translate(59.847576142333594,-92.48754999106411)"><circle class="b-outline" cx="0" cy="0" r="25" fill="#ECB5C9" stroke="#da7298" stroke-width="2px"/><text class="caption" text-anchor="middle" pointer-events="none" x="0" y="0" font-size="10px" fill="#2A2C34" font-family="Helvetica Neue, Helvetica, Arial, sans-serif"> 11/2/2015</text><text class="caption" text-anchor="middle" pointer-events="none" x="0" y="10" font-size="10px" fill="#2A2C34" font-family="Helvetica Neue, Helvetica, Arial, sans-serif"> 09:52:…</text></g></g></svg>