<svg xmlns="http://www.w3.org/2000/svg" width="539.0054931640625" height="72.77421569824219" viewBox="-354.5549621582031 -22.093486785888672 539.0054931640625 72.77421569824219"><title>Neo4j Graph Visualization</title><desc>Created using Neo4j (http://www.neo4j.com/)</desc><g class="layer relationships"><g class="relationship" transform="translate(-325.5549576051851 14.845331743624499) rotate(359.60575010378875)"><path class="b-outline" fill="#A5ABB6" stroke="none" d="M 21.40063509461097,12.933012701892217 L 21.90063509461097,12.06698729810778 A 114.87781642655808 114.87781642655808 0 0 0 46.66335622102279,22.71243418583373 L 46.37891325280396,23.67112714910762 A 115.87781642655808 115.87781642655808 0 0 1 21.40063509461097,12.933012701892217 Z M 107.62286975575802,24.953016343458444 L 107.37879088613423,23.98326095914591 A 114.87781642655808 114.87781642655808 0 0 0 132.56526610297936,14.383294127167908 L 131.17529218675898,11.724728252071523 L 139.00024879757433,11.5831159685031 L 134.41856465793987,17.92804862729642 L 133.02859074171948,15.269482752200034 A 115.87781642655808 115.87781642655808 0 0 1 107.62286975575802,24.953016343458444"/><text text-anchor="middle" pointer-events="none" font-size="8px" fill="#000000" x="76.92511423934509" y="30.932431086309023" font-family="Helvetica Neue, Helvetica, Arial, sans-serif">PublicTransport</text></g><g class="relationship" transform="translate(-164.403808316629 13.736439829336367) rotate(360.53971388584944)"><path class="b-outline" fill="#A5ABB6" stroke="none" d="M 25 0.5 L 70.84484718037703 0.5 L 70.84484718037703 -0.5 L 25 -0.5 Z M 90.18078468037703 0.5 L 136.02563186075406 0.5 L 136.02563186075406 3.5 L 143.02563186075406 0 L 136.02563186075406 -3.5 L 136.02563186075406 -0.5 L 90.18078468037703 -0.5 Z"/><text text-anchor="middle" pointer-events="none" font-size="8px" fill="#000000" x="80.51281593037703" y="3" font-family="Helvetica Neue, Helvetica, Arial, sans-serif">trek</text></g><g class="relationship" transform="translate(3.614368945771692 15.319181635867778) rotate(359.7584041864518)"><path class="b-outline" fill="#A5ABB6" stroke="none" d="M 25 0.5 L 62.750788661291594 0.5 L 62.750788661291594 -0.5 L 25 -0.5 Z M 82.0867261612916 0.5 L 119.83751482258319 0.5 L 119.83751482258319 3.5 L 126.83751482258319 0 L 119.83751482258319 -3.5 L 119.83751482258319 -0.5 L 82.0867261612916 -0.5 Z"/><text text-anchor="middle" pointer-events="none" font-size="8px" fill="#000000" x="72.4187574112916" y="3" font-family="Helvetica Neue, Helvetica, Arial, sans-serif">trek</text></g><g class="relationship" transform="translate(-325.5549576051851 14.845331743624499) rotate(359.60575010378875)"><path class="b-outline" fill="#A5ABB6" stroke="none" d="M 25 0.5 L 67.40951346168875 0.5 L 67.40951346168875 -0.5 L 25 -0.5 Z M 86.74545096168875 0.5 L 129.1549644233775 0.5 L 129.1549644233775 3.5 L 136.1549644233775 0 L 129.1549644233775 -3.5 L 129.1549644233775 -0.5 L 86.74545096168875 -0.5 Z"/><text text-anchor="middle" pointer-events="none" font-size="8px" fill="#000000" x="77.07748221168875" y="3" font-family="Helvetica Neue, Helvetica, Arial, sans-serif">trek</text></g><g class="relationship" transform="translate(-325.5549576051851 14.845331743624499) rotate(359.60575010378875)"><path class="b-outline" fill="#A5ABB6" stroke="none" d="M 21.40063509461097,-12.933012701892217 L 21.90063509461097,-12.06698729810778 A 114.87781642655808 114.87781642655808 0 0 1 66.00734850167768,-26.68143684834355 L 65.89129306799231,-27.67467958620378 A 115.87781642655808 115.87781642655808 0 0 0 21.40063509461097,-12.933012701892217 Z M 87.96005698305095,-28.136597979637898 L 87.88566385120743,-27.139368987914082 A 114.87781642655808 114.87781642655808 0 0 1 132.56526610297936,-14.383294127167908 L 131.17529218675898,-11.724728252071523 L 139.00024879757433,-11.5831159685031 L 134.41856465793987,-17.92804862729642 L 133.02859074171948,-15.269482752200034 A 115.87781642655808 115.87781642655808 0 0 0 87.96005698305095,-28.136597979637898"/><text text-anchor="middle" pointer-events="none" font-size="8px" fill="#000000" x="76.92511423934506" y="-24.932431086309023" font-family="Helvetica Neue, Helvetica, Arial, sans-serif">road</text></g></g><g class="layer nodes"><g class="node" aria-label="graph-node179" transform="translate(-325.5549576051851,14.845331743624499)"><circle class="b-outline" cx="0" cy="0" r="25" fill="#57C7E3" stroke="#23b3d7" stroke-width="2px"/><text class="caption" text-anchor="middle" pointer-events="none" x="0" y="5" font-size="10px" fill="#2A2C34" font-family="Helvetica Neue, Helvetica, Arial, sans-serif"> Darjeeling</text></g><g class="node" aria-label="graph-node181" transform="translate(155.45053392929276,14.678939029392737)"><circle class="b-outline" cx="0" cy="0" r="25" fill="#F16667" stroke="#eb2728" stroke-width="2px"/><text class="caption" text-anchor="middle" pointer-events="none" x="0" y="5" font-size="10px" fill="#FFFFFF" font-family="Helvetica Neue, Helvetica, Arial, sans-serif"> Sandakp…</text></g><g class="node" aria-label="graph-node178" transform="translate(-164.403808316629,13.736439829336367)"><circle class="b-outline" cx="0" cy="0" r="25" fill="#57C7E3" stroke="#23b3d7" stroke-width="2px"/><text class="caption" text-anchor="middle" pointer-events="none" x="0" y="5" font-size="10px" fill="#2A2C34" font-family="Helvetica Neue, Helvetica, Arial, sans-serif"> Rimbik</text></g><g class="node" aria-label="graph-node180" transform="translate(3.614368945771692,15.319181635867778)"><circle class="b-outline" cx="0" cy="0" r="25" fill="#D9C8AE" stroke="#c0a378" stroke-width="2px"/><text class="caption" text-anchor="middle" pointer-events="none" x="0" y="5" font-size="10px" fill="#2A2C34" font-family="Helvetica Neue, Helvetica, Arial, sans-serif"> BhikeBh…</text></g></g></svg>