<svg xmlns="http://www.w3.org/2000/svg" width="721.1511840820312" height="62.49512481689453" viewBox="-520.0269775390625 -40.32666778564453 721.1511840820312 62.49512481689453"><title>Neo4j Graph Visualization</title><desc>Created using Neo4j (http://www.neo4j.com/)</desc><g class="layer relationships"><g class="relationship" transform="translate(24.465573280606183 -11.32666981045907) rotate(361.7437001380622)"><path class="b-outline" fill="#A5ABB6" stroke="none" d="M 25 0.5 L 53.140854943087774 0.5 L 53.140854943087774 -0.5 L 25 -0.5 Z M 87.58616744308777 0.5 L 115.72702238617555 0.5 L 115.72702238617555 3.5 L 122.72702238617555 0 L 115.72702238617555 -3.5 L 115.72702238617555 -0.5 L 87.58616744308777 -0.5 Z"/><text text-anchor="middle" pointer-events="none" font-size="8px" fill="#000000" x="70.36351119308777" y="3" font-family="Helvetica Neue, Helvetica, Arial, sans-serif">ORIGIN</text></g><g class="relationship" transform="translate(24.465573280606183 -11.32666981045907) rotate(539.7208578558727)"><path class="b-outline" fill="#A5ABB6" stroke="none" d="M 25 0.5 L 45.71657310429899 0.5 L 45.71657310429899 -0.5 L 25 -0.5 Z M 104.90407310429899 0.5 L 125.62064620859798 0.5 L 125.62064620859798 3.5 L 132.62064620859798 0 L 125.62064620859798 -3.5 L 125.62064620859798 -0.5 L 104.90407310429899 -0.5 Z"/><text text-anchor="middle" pointer-events="none" font-size="8px" fill="#000000" x="75.31032310429899" y="3" transform="rotate(180 75.31032310429899 0)" font-family="Helvetica Neue, Helvetica, Arial, sans-serif">DESTINATION</text></g><g class="relationship" transform="translate(-305.7563394735382 -8.522365305470066) rotate(359.32405047618363)"><path class="b-outline" fill="#A5ABB6" stroke="none" d="M 25 0.5 L 65.58491850104855 0.5 L 65.58491850104855 -0.5 L 25 -0.5 Z M 100.03023100104855 0.5 L 140.6151495020971 0.5 L 140.6151495020971 3.5 L 147.6151495020971 0 L 140.6151495020971 -3.5 L 140.6151495020971 -0.5 L 100.03023100104855 -0.5 Z"/><text text-anchor="middle" pointer-events="none" font-size="8px" fill="#000000" x="82.80757475104855" y="3" font-family="Helvetica Neue, Helvetica, Arial, sans-serif">ORIGIN</text></g><g class="relationship" transform="translate(-305.7563394735382 -8.522365305470066) rotate(180.83381526939002)"><path class="b-outline" fill="#A5ABB6" stroke="none" d="M 25 0.5 L 59.55139482183712 0.5 L 59.55139482183712 -0.5 L 25 -0.5 Z M 118.73889482183712 0.5 L 153.29028964367424 0.5 L 153.29028964367424 3.5 L 160.29028964367424 0 L 153.29028964367424 -3.5 L 153.29028964367424 -0.5 L 118.73889482183712 -0.5 Z"/><text text-anchor="middle" pointer-events="none" font-size="8px" fill="#000000" x="89.14514482183712" y="3" transform="rotate(180 89.14514482183712 0)" font-family="Helvetica Neue, Helvetica, Arial, sans-serif">DESTINATION</text></g></g><g class="layer nodes"><g class="node" aria-label="graph-node219" transform="translate(172.12418957676886,-6.83154171570861)"><circle class="b-outline" cx="0" cy="0" r="25" fill="#8DCC93" stroke="#5db665" stroke-width="2px"/><text class="caption" text-anchor="middle" pointer-events="none" x="0" y="5" font-size="10px" fill="#2A2C34" font-family="Helvetica Neue, Helvetica, Arial, sans-serif"> MSN</text></g><g class="node" aria-label="graph-node266" transform="translate(-491.02700864647284,-11.218766694304009)"><circle class="b-outline" cx="0" cy="0" r="25" fill="#8DCC93" stroke="#5db665" stroke-width="2px"/><text class="caption" text-anchor="middle" pointer-events="none" x="0" y="5" font-size="10px" fill="#2A2C34" font-family="Helvetica Neue, Helvetica, Arial, sans-serif"> GRR</text></g><g class="node" aria-label="graph-node469" transform="translate(24.465573280606183,-11.32666981045907)"><circle class="b-outline" cx="0" cy="0" r="25" fill="#ECB5C9" stroke="#da7298" stroke-width="2px"/><text class="caption" text-anchor="middle" pointer-events="none" x="0" y="5" font-size="10px" fill="#2A2C34" font-family="Helvetica Neue, Helvetica, Arial, sans-serif"> 11/30/20…</text></g><g class="node" aria-label="graph-node205" transform="translate(-133.15320229838267,-10.558753020462062)"><circle class="b-outline" cx="0" cy="0" r="25" fill="#8DCC93" stroke="#5db665" stroke-width="2px"/><text class="caption" text-anchor="middle" pointer-events="none" x="0" y="5" font-size="10px" fill="#2A2C34" font-family="Helvetica Neue, Helvetica, Arial, sans-serif"> ORD</text></g><g class="node" aria-label="graph-node1049" transform="translate(-305.7563394735382,-8.522365305470066)"><circle class="b-outline" cx="0" cy="0" r="25" fill="#ECB5C9" stroke="#da7298" stroke-width="2px"/><text class="caption" text-anchor="middle" pointer-events="none" x="0" y="5" font-size="10px" fill="#2A2C34" font-family="Helvetica Neue, Helvetica, Arial, sans-serif"> 11/17/20…</text></g></g></svg>